<?xml version="1.0" encoding="UTF-8" standalone="no"?>
<!DOCTYPE svg PUBLIC "-//W3C//DTD SVG 1.1//EN" "http://www.w3.org/Graphics/SVG/1.1/DTD/svg11.dtd">
<svg width="100%" height="100%" viewBox="0 0 461 639" version="1.1" xmlns="http://www.w3.org/2000/svg" xmlns:xlink="http://www.w3.org/1999/xlink" xml:space="preserve" xmlns:serif="http://www.serif.com/" style="fill-rule:evenodd;clip-rule:evenodd;">
    <g transform="matrix(1,0,0,1,-118.914,39.8161)">
        <g transform="matrix(1.02644,0,0,1.02644,795.379,570.98)">
            <g transform="matrix(0.809056,-0.809056,0.809056,0.809056,-551.037,-284.705)">
                <path d="M-0.001,18.663L293.429,18.663" style="fill:none;fill-rule:nonzero;stroke:rgb(174,135,189);stroke-width:37.33px;"/>
            </g>
            <g transform="matrix(0.809056,0.809056,-0.809056,0.809056,-522.142,-314.518)">
                <path d="M0,18.663L295.046,18.668" style="fill:none;fill-rule:nonzero;stroke:rgb(174,135,189);stroke-width:37.33px;"/>
            </g>
            <g transform="matrix(0,-1.14418,1.14418,0,-579.385,-85.4154)">
                <path d="M0.002,18.666L360.259,18.666" style="fill:none;fill-rule:nonzero;stroke:rgb(238,128,155);stroke-width:37.33px;"/>
            </g>
            <g transform="matrix(1.52557,0,0,1.52557,-661.198,27.0253)">
                <g>
                    <path d="M16.375,-1.458C15.833,-1.068 15.073,-0.693 14.104,-0.333C13.146,0.026 12.094,0.208 10.958,0.208C9.026,0.208 7.339,-0.214 5.896,-1.062C4.448,-1.906 3.339,-3.042 2.563,-4.458C1.797,-5.885 1.417,-7.458 1.417,-9.167C1.417,-11.01 1.797,-12.672 2.563,-14.146C3.339,-15.615 4.422,-16.76 5.813,-17.583C7.198,-18.417 8.781,-18.833 10.563,-18.833C11.656,-18.833 12.672,-18.687 13.604,-18.396C14.531,-18.104 15.354,-17.734 16.063,-17.292L14.896,-14.5C13.505,-15.469 12.094,-15.958 10.667,-15.958C9.568,-15.958 8.547,-15.667 7.604,-15.083C6.656,-14.5 5.901,-13.693 5.333,-12.667C4.776,-11.651 4.5,-10.542 4.5,-9.333C4.5,-8.052 4.755,-6.906 5.271,-5.896C5.797,-4.88 6.542,-4.089 7.5,-3.521C8.469,-2.948 9.589,-2.667 10.854,-2.667C11.755,-2.667 12.568,-2.797 13.292,-3.062C14.01,-3.339 14.625,-3.693 15.125,-4.125L16.375,-1.458Z" style="fill:rgb(84,117,142);fill-rule:nonzero;"/>
                </g>
            </g>
            <g transform="matrix(1.52557,0,0,1.52557,-618.462,27.0253)">
                <g>
                    <path d="M5.25,-6.708C5.25,-5.984 5.438,-5.318 5.813,-4.708C6.188,-4.094 6.693,-3.604 7.333,-3.229C7.984,-2.865 8.693,-2.687 9.458,-2.687C10.26,-2.687 10.99,-2.865 11.646,-3.229C12.313,-3.589 12.833,-4.073 13.208,-4.687C13.583,-5.297 13.771,-5.969 13.771,-6.708L13.771,-18.625L16.708,-18.625L16.708,-6.625C16.708,-5.292 16.385,-4.109 15.75,-3.083C15.109,-2.052 14.234,-1.25 13.125,-0.667C12.01,-0.083 10.792,0.208 9.458,0.208C8.135,0.208 6.922,-0.083 5.813,-0.667C4.714,-1.25 3.844,-2.052 3.208,-3.083C2.583,-4.109 2.271,-5.292 2.271,-6.625L2.271,-18.625L5.25,-18.625L5.25,-6.708Z" style="fill:rgb(84,117,142);fill-rule:nonzero;"/>
                </g>
            </g>
            <g transform="matrix(1.52557,0,0,1.52557,-573.932,27.0253)">
                <g>
                    <path d="M12.75,0L8.542,-6.479L5.542,-6.479L5.542,0L2.563,0L2.563,-18.625L7.813,-18.625C9.88,-18.625 11.542,-18.094 12.792,-17.042C14.052,-15.984 14.688,-14.521 14.688,-12.646C14.688,-11.49 14.443,-10.422 13.958,-9.437C13.469,-8.464 12.708,-7.714 11.667,-7.187L16.188,0L12.75,0ZM5.542,-9.333L8.208,-9.333C9.401,-9.333 10.271,-9.656 10.813,-10.312C11.354,-10.979 11.625,-11.719 11.625,-12.542C11.625,-13.01 11.521,-13.49 11.313,-13.979C11.104,-14.464 10.75,-14.88 10.25,-15.229C9.76,-15.573 9.115,-15.75 8.313,-15.75L5.542,-15.75L5.542,-9.333Z" style="fill:rgb(84,117,142);fill-rule:nonzero;"/>
                </g>
            </g>
            <g transform="matrix(1.52557,0,0,1.52557,-532.174,27.0253)">
                <g>
                    <path d="M12.75,0L8.542,-6.479L5.542,-6.479L5.542,0L2.563,0L2.563,-18.625L7.813,-18.625C9.88,-18.625 11.542,-18.094 12.792,-17.042C14.052,-15.984 14.688,-14.521 14.688,-12.646C14.688,-11.49 14.443,-10.422 13.958,-9.437C13.469,-8.464 12.708,-7.714 11.667,-7.187L16.188,0L12.75,0ZM5.542,-9.333L8.208,-9.333C9.401,-9.333 10.271,-9.656 10.813,-10.312C11.354,-10.979 11.625,-11.719 11.625,-12.542C11.625,-13.01 11.521,-13.49 11.313,-13.979C11.104,-14.464 10.75,-14.88 10.25,-15.229C9.76,-15.573 9.115,-15.75 8.313,-15.75L5.542,-15.75L5.542,-9.333Z" style="fill:rgb(84,117,142);fill-rule:nonzero;"/>
                </g>
            </g>
            <g transform="matrix(1.52557,0,0,1.52557,-490.415,27.0253)">
                <g>
                    <rect x="2.563" y="-18.625" width="2.979" height="18.625" style="fill:rgb(84,117,142);"/>
                </g>
            </g>
            <g transform="matrix(1.52557,0,0,1.52557,-462.433,27.0253)">
                <g>
                    <path d="M16.375,-1.458C15.833,-1.068 15.073,-0.693 14.104,-0.333C13.146,0.026 12.094,0.208 10.958,0.208C9.026,0.208 7.339,-0.214 5.896,-1.062C4.448,-1.906 3.339,-3.042 2.563,-4.458C1.797,-5.885 1.417,-7.458 1.417,-9.167C1.417,-11.01 1.797,-12.672 2.563,-14.146C3.339,-15.615 4.422,-16.76 5.813,-17.583C7.198,-18.417 8.781,-18.833 10.563,-18.833C11.656,-18.833 12.672,-18.687 13.604,-18.396C14.531,-18.104 15.354,-17.734 16.063,-17.292L14.896,-14.5C13.505,-15.469 12.094,-15.958 10.667,-15.958C9.568,-15.958 8.547,-15.667 7.604,-15.083C6.656,-14.5 5.901,-13.693 5.333,-12.667C4.776,-11.651 4.5,-10.542 4.5,-9.333C4.5,-8.052 4.755,-6.906 5.271,-5.896C5.797,-4.88 6.542,-4.089 7.5,-3.521C8.469,-2.948 9.589,-2.667 10.854,-2.667C11.755,-2.667 12.568,-2.797 13.292,-3.062C14.01,-3.339 14.625,-3.693 15.125,-4.125L16.375,-1.458Z" style="fill:rgb(84,117,142);fill-rule:nonzero;"/>
                </g>
            </g>
            <g transform="matrix(1.52557,0,0,1.52557,-419.697,27.0253)">
                <g>
                    <path d="M5.25,-6.708C5.25,-5.984 5.438,-5.318 5.813,-4.708C6.188,-4.094 6.693,-3.604 7.333,-3.229C7.984,-2.865 8.693,-2.687 9.458,-2.687C10.26,-2.687 10.99,-2.865 11.646,-3.229C12.313,-3.589 12.833,-4.073 13.208,-4.687C13.583,-5.297 13.771,-5.969 13.771,-6.708L13.771,-18.625L16.708,-18.625L16.708,-6.625C16.708,-5.292 16.385,-4.109 15.75,-3.083C15.109,-2.052 14.234,-1.25 13.125,-0.667C12.01,-0.083 10.792,0.208 9.458,0.208C8.135,0.208 6.922,-0.083 5.813,-0.667C4.714,-1.25 3.844,-2.052 3.208,-3.083C2.583,-4.109 2.271,-5.292 2.271,-6.625L2.271,-18.625L5.25,-18.625L5.25,-6.708Z" style="fill:rgb(84,117,142);fill-rule:nonzero;"/>
                </g>
            </g>
            <g transform="matrix(1.52557,0,0,1.52557,-375.167,27.0253)">
                <g>
                    <path d="M5.542,-18.625L5.542,-2.875L14.729,-2.875L14.729,0L2.563,0L2.563,-18.625L5.542,-18.625Z" style="fill:rgb(84,117,142);fill-rule:nonzero;"/>
                </g>
            </g>
            <g transform="matrix(1.52557,0,0,1.52557,-334.97,27.0253)">
                <g>
                    <path d="M5.25,-6.708C5.25,-5.984 5.438,-5.318 5.813,-4.708C6.188,-4.094 6.693,-3.604 7.333,-3.229C7.984,-2.865 8.693,-2.687 9.458,-2.687C10.26,-2.687 10.99,-2.865 11.646,-3.229C12.313,-3.589 12.833,-4.073 13.208,-4.687C13.583,-5.297 13.771,-5.969 13.771,-6.708L13.771,-18.625L16.708,-18.625L16.708,-6.625C16.708,-5.292 16.385,-4.109 15.75,-3.083C15.109,-2.052 14.234,-1.25 13.125,-0.667C12.01,-0.083 10.792,0.208 9.458,0.208C8.135,0.208 6.922,-0.083 5.813,-0.667C4.714,-1.25 3.844,-2.052 3.208,-3.083C2.583,-4.109 2.271,-5.292 2.271,-6.625L2.271,-18.625L5.25,-18.625L5.25,-6.708Z" style="fill:rgb(84,117,142);fill-rule:nonzero;"/>
                </g>
            </g>
            <g transform="matrix(1.52557,0,0,1.52557,-290.44,27.0253)">
                <g>
                    <path d="M21.354,-19.292L21.354,0L18.396,0L18.396,-10.771L11.875,-1.5L11.813,-1.5L5.458,-10.333L5.458,0L2.563,0L2.563,-19.292L2.583,-19.292L11.875,-6.146L21.313,-19.292L21.354,-19.292Z" style="fill:rgb(84,117,142);fill-rule:nonzero;"/>
                </g>
            </g>
            <g transform="matrix(0.841752,0.774982,-0.774982,0.841752,-445.375,-321.917)">
                <path d="M0.367,39.275C78.612,-12.204 156.853,-12.206 235.096,39.282" style="fill:none;fill-rule:nonzero;stroke:rgb(84,117,142);stroke-width:1.33px;"/>
            </g>
            <g transform="matrix(-0.860739,0.753838,-0.753838,-0.860739,-260.366,-428.144)">
                <path d="M0.328,32.332C74.098,-9.885 147.861,-9.892 221.63,32.33" style="fill:none;fill-rule:nonzero;stroke:rgb(84,117,142);stroke-width:1.33px;"/>
            </g>
            <g transform="matrix(0.794787,0.823077,-0.823077,0.794787,-434.399,-301.296)">
                <path d="M0.326,28.447C67.016,-8.595 133.71,-8.593 200.399,28.446" style="fill:none;fill-rule:nonzero;stroke:rgb(84,117,142);stroke-width:1.33px;"/>
            </g>
            <g transform="matrix(-0.822138,0.795759,-0.795759,-0.822138,-289.177,-424.144)">
                <path d="M0.321,25.31C60.064,-7.547 119.808,-7.544 179.552,25.31" style="fill:none;fill-rule:nonzero;stroke:rgb(84,117,142);stroke-width:1.33px;"/>
            </g>
            <g transform="matrix(-0.829082,0.788522,-0.788522,-0.829082,-320.381,-411.398)">
                <path d="M0.298,17.369C45.072,-4.899 89.85,-4.902 134.631,17.371" style="fill:none;fill-rule:nonzero;stroke:rgb(84,117,142);stroke-width:1.33px;"/>
            </g>
            <g transform="matrix(0.781878,0.835351,-0.835351,0.781878,-431.363,-275.903)">
                <path d="M0.268,18.173C52.725,-5.17 105.183,-5.17 157.636,18.168" style="fill:none;fill-rule:nonzero;stroke:rgb(84,117,142);stroke-width:1.33px;"/>
            </g>
        </g>
    </g>
</svg>
